<?xml version="1.0" encoding="UTF-8"?>
<svg version="1.1" xmlns="http://www.w3.org/2000/svg" width="1213" height="1234">
<path d="M0 0 C10.56 0 21.12 0 32 0 C32.33 0.99 32.66 1.98 33 3 C72.27 3.66 111.54 4.32 152 5 C149.22937637 16.08249453 137.95962641 24.76521886 129.3125 31.5 C124.04288682 35.72906897 120.4308125 40.20373256 117 46 C116.55140625 46.74507812 116.1028125 47.49015625 115.640625 48.2578125 C110.32721993 57.93345753 105.06648772 70.99932897 108 82 C108.99414593 83.67016516 109.9935725 85.33720673 111 87 C111.8820826 93.04856642 109.86960555 98.18921909 107.97265625 103.9140625 C104.1561952 116.02251321 105.78001571 127.46454732 109.02734375 139.40234375 C111.10135047 147.07366981 111.8080733 151.6840574 108.0078125 158.859375 C104.88838312 165.48513973 106.01593186 173.02391864 106.24194336 180.14672852 C106.31215933 182.42643933 106.36655172 184.70616838 106.41992188 186.98632812 C106.46257745 188.44794512 106.50616653 189.90953524 106.55078125 191.37109375 C106.58856689 192.69036865 106.62635254 194.00964355 106.6652832 195.36889648 C106.98916407 198.88244878 107.73627027 201.71925477 109 205 C116.33553145 205.65888007 122.54235367 204.72191046 129.515625 202.6484375 C140.53084378 199.57137373 151.5828348 198.41012078 162.9375 197.3125 C166.84305307 196.91857922 170.74775002 196.5165869 174.65234375 196.11328125 C175.57743744 196.01927032 176.50253113 195.9252594 177.45565796 195.82839966 C183.07191512 195.24537182 188.60788292 194.46386283 194.16592407 193.45953369 C204.12413585 191.84485083 214.22964223 191.80708665 224.29296875 191.68359375 C225.73399846 191.66294423 227.17502322 191.64194621 228.61604309 191.62062073 C232.37547477 191.56598644 236.13495633 191.5163701 239.89447021 191.46777344 C242.95187279 191.42740846 246.0092191 191.38346834 249.06656933 191.33933926 C273.76798142 190.98311759 273.76798142 190.98311759 280.24804688 191.02514648 C283.63196122 191.00246668 286.12571602 190.67856852 289.3125 189.625 C290.11300781 189.36976563 290.91351562 189.11453125 291.73828125 188.8515625 C294.01133252 188.05230262 294.01133252 188.05230262 296.0703125 186.890625 C299.36502573 185.36998812 302.59647394 186.18051045 306 187 C307.70523769 187.66185852 309.40276723 188.34378609 311.09375 189.04125977 C316.88962692 191.17894997 321.81713261 191.451793 327.9375 191.21484375 C330.04905473 191.17452645 332.16062814 191.13517895 334.2722168 191.09667969 C335.36883636 191.06973022 336.46545593 191.04278076 337.5953064 191.01501465 C361.1802863 190.47805549 383.889228 192.07897867 407.21728516 195.35058594 C411.70361668 195.97241792 416.19607815 196.49345232 420.69921875 196.9765625 C453.8010686 200.56262658 486.40512106 206.91458593 518.20703125 216.8515625 C519.00647659 217.10031128 519.80592194 217.34906006 520.6295929 217.60534668 C524.5711757 218.83379935 528.50612931 220.0782899 532.43188477 221.35644531 C540.09210675 223.80683775 547.08271349 225.57384029 555.20288086 225.7722168 C564.64505753 226.5411398 573.19544878 232.77615157 581.20996094 237.41357422 C585.93204988 240.07310725 590.16624496 241.81267444 595.4375 243.0625 C601.56237397 244.59198045 604.85912914 246.99761627 609.5 251.17578125 C614.21725743 255.19456696 619.60675721 258.26747909 624.875 261.5 C649.07150564 276.42255798 670.52729958 293.35884812 688 316 C688.73734375 316.88558594 689.4746875 317.77117187 690.234375 318.68359375 C702.33826082 333.57611993 711.33251174 350.91222222 720.75 367.5625 C721.33426758 368.59020508 721.91853516 369.61791016 722.52050781 370.67675781 C727.58721261 379.73450388 730.47364868 388.46125858 732.9375 398.51171875 C733.81527433 401.95140075 733.81527433 401.95140075 735.5625 404.45703125 C737.48549182 407.85884558 737.69497053 411.18019907 738 415 C738.43505965 420.21082805 739.24174709 425.06020692 740.5625 430.12890625 C742.32084416 437.46209765 742.23256524 444.43727098 742 451.9375 C741.9232305 454.46705513 741.86021593 456.99707382 741.8125 459.52734375 C741.77769531 460.62812256 741.74289062 461.72890137 741.70703125 462.86303711 C742.06379647 466.68310071 743.21775711 470.21775711 746 473 C745.9610621 477.53626486 745.2613173 481.40419657 743.4375 485.5625 C741.78793321 489.50711623 741.24190572 492.81435177 742 497 C742.847865 498.96142253 742.847865 498.96142253 743.9375 500.875 C748.11480859 508.67563719 747.06140711 515.27922183 745.0625 523.5625 C743.180923 531.4723448 742.58101169 539.06086875 742.5625 547.1875 C742.5529126 548.2381665 742.5433252 549.28883301 742.53344727 550.37133789 C742.5824623 554.90214243 742.6901464 558.78536829 744.5078125 562.97265625 C746.77639172 568.22717074 746.39815336 573.61743472 746.3125 579.25 C746.31572266 580.32507813 746.31894531 581.40015625 746.32226562 582.5078125 C746.26736976 590.51262802 746.26736976 590.51262802 744.85620117 593.08496094 C744.57365479 593.71692383 744.2911084 594.34888672 744 595 C744.83688389 597.00193854 744.83688389 597.00193854 746 599 C746.43841287 602.42662025 746.37024855 605.86057374 746.375 609.3125 C746.39949219 610.23740234 746.42398437 611.16230469 746.44921875 612.11523438 C746.47603124 618.40276373 745.34224567 621.72743693 742 627 C742.33 627.99 742.66 628.98 743 630 C752.79746171 630.2013901 762.59508673 630.38495638 772.39328957 630.54658794 C776.9443719 630.62220551 781.49518466 630.70365955 786.04589844 630.79907227 C790.44833379 630.89115099 794.85079393 630.96708855 799.25370407 631.03244972 C800.92247053 631.05994199 802.59115641 631.09297565 804.25969315 631.13199425 C821.53444866 631.52860415 837.65531526 629.70950834 851.125 617.6875 C852.75379506 616.12895648 854.37881127 614.56645407 856 613 C857.66310915 611.53761092 859.32979276 610.07927702 861 608.625 C872.10771122 598.58097855 880.84744195 587.76211205 886.6640625 573.8984375 C888 572 888 572 890.5859375 571.1640625 C891.38257813 571.10992188 892.17921875 571.05578125 893 571 C895.7037693 573.7037693 894.96761786 580.25891099 895.05126953 583.88525391 C894.92969325 588.89998623 893.88377058 593.79764501 892.88671875 598.69921875 C892.75354783 599.35412292 892.62037691 600.0090271 892.48317051 600.68377686 C892.16830305 602.19318872 891.83547736 603.69899995 891.48221493 605.19989014 C889.58630751 614.04298614 889.75477619 622.82800211 889.82055664 631.81640625 C889.82604097 633.59638719 889.83058766 635.37637124 889.83427429 637.15635681 C889.84393544 640.96821564 889.85971481 644.77998122 889.88023567 648.59179688 C889.9121893 654.61717385 889.92757541 660.64252458 889.94029236 666.66796875 C889.9742862 681.62218679 890.02718757 696.57633025 890.0894165 711.53045654 C890.13783159 723.17701154 890.17991832 734.82350228 890.20092481 746.47014332 C890.21246091 752.46312041 890.23789428 758.45582946 890.27367222 764.44870853 C890.29281633 768.16689012 890.29953931 771.88501661 890.30273628 775.60324287 C890.30676613 777.33067396 890.31598705 779.05810165 890.33069992 780.78547478 C890.35001998 783.13779256 890.35099815 785.48941944 890.3473053 787.84179688 C890.35534982 789.81835266 890.35534982 789.81835266 890.36355686 791.83483887 C890 795 890 795 888.64626217 796.93566895 C886.38099198 798.40019717 884.63764579 798.21386317 882 798 C881.5875 796.7625 881.175 795.525 880.75 794.25 C880.4715625 793.42886719 880.193125 792.60773437 879.90625 791.76171875 C879.28857688 789.87941315 878.70654267 787.98512674 878.15625 786.08203125 C872.98029806 768.83629483 860.57216817 758.30616743 845.76025391 749.11621094 C844.23818875 748.15104008 842.76055066 747.11646757 841.29296875 746.0703125 C834.50314674 741.60079187 828.09869632 741.32292365 820.16723633 741.40014648 C815.90939076 741.39723044 813.05013781 741.32327084 809.46875 738.8984375 C804.73528254 736.30782355 801.8508747 737.13321023 796.75 738.25 C795.05183114 738.56687698 793.35260193 738.87812585 791.65234375 739.18359375 C790.84394043 739.3316748 790.03553711 739.47975586 789.20263672 739.63232422 C780.72119876 741.04809074 772.31930251 739.64703845 763.89453125 738.4375 C756.33655231 737.29543109 756.33655231 737.29543109 749.5625 739.8125 C746.70423546 743.81407035 746.83875049 747.62277403 746.7890625 752.34375 C746.76095813 753.83334365 746.73229351 755.32292681 746.703125 756.8125 C746.66217809 759.14452409 746.62527 761.47636009 746.59863281 763.80859375 C746.4944903 772.2118175 746.15853838 779.71339006 743.60107422 787.79589844 C742.80393255 790.71896709 743.02180519 792.95334034 743.75 795.875 C743.95109375 796.73867188 744.1521875 797.60234375 744.359375 798.4921875 C744.67648437 799.73355469 744.67648437 799.73355469 745 801 C748.63740717 815.82556991 746.02413549 834.30636906 742.375 848.9375 C740.11144307 858.11876407 740.06965661 866.28950924 744 875 C744.556875 875.86625 745.11375 876.7325 745.6875 877.625 C747.58718225 881.06252026 747.43581999 883.07762009 747 887 C746.08864447 890.05427257 745.06975733 893.04270493 743.97265625 896.03515625 C741.30082484 904.17941344 741.84072353 912.54442976 742 921 C742.02682861 922.56137695 742.02682861 922.56137695 742.05419922 924.15429688 C742.12221144 927.60355918 742.21426106 931.05147459 742.3125 934.5 C742.33489746 935.60956055 742.35729492 936.71912109 742.38037109 937.86230469 C742.59911786 944.66290716 742.59911786 944.66290716 744.55859375 951.109375 C746.65492917 955.94118014 746.03743474 960.59041298 745.75 965.75 C745.44976444 975.39285964 746.61498218 981.43043136 753 989 C753.66 989.66 754.32 990.32 755 991 C755.0546875 993.1015625 755.0546875 993.1015625 754.875 995.625 C754.77684405 1001.81774782 756.30475452 1006.18076017 760.61328125 1010.6875 C763.23222782 1013.01029075 765.9123359 1014.9447335 768.875 1016.8125 C771.78145213 1018.84701649 773.7874661 1020.85415978 776.1875 1023.4375 C780.84070336 1028.24951577 785.78063402 1030.68662836 792 1033 C792.25 1037.7109375 792.25 1037.7109375 790 1040.3125 C783.32148102 1044.06916692 776.44874999 1041.56932572 769.44140625 1039.75390625 C761.30102393 1037.97059889 753.21270035 1037.8393863 744.91625977 1037.80712891 C743.14813934 1037.79486267 743.14813934 1037.79486267 741.34429932 1037.78234863 C737.46001509 1037.7576326 733.57573888 1037.74082742 729.69140625 1037.7265625 C728.33952266 1037.72119086 726.98763909 1037.71581336 725.63575554 1037.71043015 C719.9951816 1037.6888197 714.35461022 1037.67009906 708.71400547 1037.65880775 C700.7140545 1037.64267328 692.71459706 1037.60973385 684.71483189 1037.55240691 C679.04635117 1037.51321902 673.37799952 1037.49411764 667.70938724 1037.48888719 C664.34704721 1037.48529479 660.98564849 1037.47129284 657.62338448 1037.44078445 C641.71735275 1037.30480038 626.99923695 1038.43078469 611.45982361 1041.9246521 C604.070184 1043.53042665 596.12014255 1044.2068 589.2578125 1040.53125 C587.20365457 1039.13811867 585.53936466 1037.94446063 584 1036 C584 1035.01 584 1034.02 584 1033 C584.82242188 1032.74347656 585.64484375 1032.48695312 586.4921875 1032.22265625 C595.14653406 1029.25459513 600.58765511 1025.41234489 607 1019 C608.76029828 1017.36359368 610.53101785 1015.73831864 612.3125 1014.125 C613.09238281 1013.40570312 613.87226562 1012.68640625 614.67578125 1011.9453125 C620.58433735 1007 620.58433735 1007 625 1007 C625.25652344 1006.15824219 625.51304687 1005.31648437 625.77734375 1004.44921875 C627.09270964 1000.73845811 628.75718234 997.30029928 630.5625 993.8125 C633.0932091 988.89024504 635.11864292 984.89203388 635.1418457 979.27246094 C635.14888016 978.31426453 635.15591461 977.35606812 635.16316223 976.36883545 C635.16732651 975.3344635 635.17149078 974.30009155 635.17578125 973.234375 C635.19898304 971.04295918 635.22310052 968.8515529 635.24804688 966.66015625 C635.28313158 963.20615284 635.31249028 959.75249961 635.32592773 956.29833984 C635.341437 952.9640867 635.38167043 949.63085663 635.42578125 946.296875 C635.42387283 945.27059998 635.42196442 944.24432495 635.41999817 943.18695068 C635.52784847 936.83791076 636.50490846 933.28741321 640 928 C640.65927832 922.72577346 639.66806455 918.41407486 638.5 913.25 C635.86487146 900.68922062 635.71822409 887.94578623 639.38671875 875.6015625 C640.74753456 869.82892982 639.69245462 864.39462828 637.4375 859 C634.18969926 850.97696748 636.04698921 844.23017752 639.09375 836.4609375 C640.24002105 833.34821871 640.57106115 831.28360164 640 828 C639.35085194 826.63734869 638.68182248 825.28409939 638 823.9375 C634.98952557 817.56174523 634.53111745 810.13439787 636.90625 803.44921875 C637.62014514 801.9729856 638.34872961 800.50374088 639.09375 799.04296875 C640.60220321 795.64244707 640.73245568 792.62706416 640 789 C639.37276168 787.58601017 638.70280159 786.19049313 638 784.8125 C634.89276604 778.3760868 634.66158837 771.04407998 636.90625 764.26171875 C637.62346765 762.61467965 638.35480688 760.97370268 639.1015625 759.33984375 C641.42174115 753.29729152 640.24684963 746.91276219 638 741 C636.91325006 738.91015769 636.91325006 738.91015769 635 738 C632.17148972 738.13469097 629.75956255 738.70682222 627.11790466 739.72645569 C620.75173541 742.1680568 614.93022464 742.45240729 608.16015625 742.43359375 C607.03919052 742.4388356 605.91822479 742.44407745 604.76329041 742.44947815 C602.39745914 742.45587603 600.03159597 742.45459046 597.66577148 742.44604492 C594.10405446 742.43759854 590.54397832 742.46622744 586.98242188 742.49804688 C584.66666714 742.4996611 582.35090963 742.49907713 580.03515625 742.49609375 C578.99698257 742.50732773 577.9588089 742.51856171 576.88917542 742.53013611 C570.40934606 742.47115921 564.58156122 741.53525934 558.32373047 740.00219727 C549.0738552 737.76802686 540.26624085 737.41343478 530.78515625 737.46875 C529.11087317 737.4660436 527.43659165 737.46215177 525.76231384 737.45715332 C522.29084991 737.45132341 518.81980332 737.45961464 515.34838867 737.47851562 C510.92842121 737.50142761 506.50941927 737.48806406 502.08948612 737.46422577 C498.64650836 737.44969634 495.20375573 737.45440415 491.7607708 737.46473694 C490.13149331 737.46737806 488.50219443 737.46422816 486.87294197 737.45481873 C478.48928821 737.4169618 471.04899697 737.6291721 463.23191833 741.09484863 C457.15800624 743.55811521 451.9403969 742.09286525 446 739.9375 C438.97453303 737.42011539 434.1939795 737.6232847 427.375 740.5625 C422.35977453 742.69861455 419.05817177 742.77376838 413.9140625 740.83984375 C412.78742187 740.37707031 411.66078125 739.91429687 410.5 739.4375 C405.41077619 737.39137699 402.40109075 736.39967681 397 738 C395.16755314 738.50323914 393.3341339 739.00294474 391.5 739.5 C390.07494141 739.89638672 390.07494141 739.89638672 388.62109375 740.30078125 C376.75595806 743.46599629 365.43601773 741.92302678 353.625 739.4375 C344.56278025 737.68011397 335.92679366 736.52575404 326.6875 736.9375 C325.80594238 736.97093506 324.92438477 737.00437012 324.01611328 737.03881836 C318.28737261 737.4414721 314.84952006 738.98279231 310 742 C306.69196466 741.93758424 303.99230242 741.33197686 300.86328125 740.28515625 C287.43314234 735.82324233 273.01991485 736.94429023 259.0625 737.4375 C257.39650579 737.49090662 255.73049 737.54364457 254.06445312 737.59570312 C250.04267935 737.7227936 246.02130271 737.85881741 242 738 C241.67 740.31 241.34 742.62 241 745 C242.32 745.33 243.64 745.66 245 746 C245 746.99 245 747.98 245 749 C245.61875 749.0825 246.2375 749.165 246.875 749.25 C249 750 249 750 249.90625 751.875 C251.17348501 754.33705659 252.34968496 755.20894997 254.625 756.75 C261.37436644 761.60072434 266.76186607 767.5978363 272 774 C273.1446875 775.0209375 273.1446875 775.0209375 274.3125 776.0625 C276 778 276 778 276.25 780.75 C276.12625 781.86375 276.12625 781.86375 276 783 C276.556875 783.11214844 277.11375 783.22429688 277.6875 783.33984375 C284.93259917 785.21231026 288.70483102 788.99436549 293 795 C293.86399389 796.52469509 294.69923131 798.06617029 295.5 799.625 C297.65402518 803.77508851 300.23790723 806.2630911 303.83203125 809.203125 C310.59103734 814.80518411 316.21347516 821.3491742 321.68359375 828.1796875 C324.7311715 831.89022904 327.97128996 835.39985176 331.25 838.90625 C333.68660724 841.56884629 335.90948351 844.38251382 338.16015625 847.203125 C342.86558868 852.99023246 348.06173798 858.09350734 353.4375 863.25 C360.06510213 869.71616348 365.81688917 875.94022651 370.58862305 883.87207031 C374.19492154 889.72082486 378.93430522 893.92222672 384.0703125 898.41796875 C388.43485533 902.26458583 392.20226983 905.77516165 394.203125 911.35546875 C396.05652262 915.81854894 399.20458018 917.8740038 403.125 920.5 C404.47968956 921.45107855 405.833858 922.40289982 407.1875 923.35546875 C407.84234375 923.80841309 408.4971875 924.26135742 409.171875 924.72802734 C411.53141293 926.36974645 413.83853973 928.07061895 416.125 929.8125 C416.76695312 930.29332031 417.40890625 930.77414062 418.0703125 931.26953125 C423.03912802 935.72537189 426.03466994 940.66071548 429.0625 946.5 C436.15290802 959.52054024 446.27333458 969.35559949 456.77124023 979.67016602 C464.04865815 986.89345234 470.28348055 994.64684813 476.12890625 1003.06640625 C481.16085428 1010.30413972 486.24718298 1016.22776314 494.6875 1019.375 C498.77740084 1021.38136645 499.71328871 1023.40706676 502.01171875 1027.2109375 C504.60925401 1030.85463137 507.67102285 1033.82784377 510.875 1036.9375 C517.16843684 1043.07939632 522.75588314 1049.40301738 527.8359375 1056.6015625 C535.99433934 1068.15652347 545.65575855 1077.88157623 556.09765625 1087.36328125 C562.19678213 1092.90420987 567.44519835 1098.68656229 572.61328125 1105.109375 C574.99370482 1107.99237572 577.46679782 1110.75078833 580 1113.5 C583.25507083 1117.0355077 586.36636881 1120.62778787 589.375 1124.375 C595.94618257 1132.50190424 603.03971486 1140.18386639 610.5625 1147.4375 C617.04746167 1153.82830614 622.49253638 1161.21576092 627.8671875 1168.546875 C632.53941737 1174.85103205 638.08670231 1179.866572 644 1185 C645.05574219 1185.92619141 645.05574219 1185.92619141 646.1328125 1186.87109375 C647.42167032 1188.00080111 648.7146715 1189.12579843 650.01171875 1190.24609375 C651.39122335 1191.46298484 652.74668806 1192.70746242 654.08203125 1193.97265625 C665.22204927 1204.42947044 677.47885076 1213.94567734 692 1219 C694.21350477 1219.90410758 696.42193426 1220.82074478 698.625 1221.75 C699.60726562 1222.15734375 700.58953125 1222.5646875 701.6015625 1222.984375 C703.08666264 1223.61324477 704.55750227 1224.27875114 706 1225 C705.67 1226.32 705.34 1227.64 705 1229 C704.34773437 1229.12117188 703.69546875 1229.24234375 703.0234375 1229.3671875 C699.16023628 1230.1079193 695.50687917 1230.81116266 691.8125 1232.1875 C688.16808879 1233.24032991 685.66851848 1232.88316186 682 1232 C681.13767667 1231.24318263 681.13767667 1231.24318263 680.25793266 1230.47107601 C677.08934017 1228.40669186 674.1545983 1228.59914736 670.49807739 1228.65028381 C669.73935235 1228.64898183 668.98062731 1228.64767984 668.19891059 1228.6463384 C665.65466004 1228.64574128 663.11105191 1228.66675945 660.56689453 1228.68774414 C658.74355303 1228.6919042 656.92020824 1228.69479256 655.09686279 1228.69650269 C650.14217941 1228.70530276 645.18777977 1228.73341271 640.23320246 1228.76602101 C636.09800118 1228.79154298 631.96278471 1228.80780086 627.82753837 1228.82408613 C618.07160825 1228.86269621 608.31585147 1228.91701064 598.56005859 1228.98120117 C588.49448955 1229.04717289 578.42904819 1229.08765691 568.36330712 1229.11539942 C559.72276787 1229.1400635 551.08239431 1229.18011378 542.44197929 1229.23260206 C537.28082326 1229.26382633 532.11980353 1229.2893056 526.95856094 1229.30018806 C522.1041901 1229.31113145 517.25031222 1229.34131535 512.39614105 1229.38628769 C510.61520781 1229.39959503 508.83420928 1229.40614758 507.05322647 1229.40542793 C504.62023295 1229.40552813 502.18866214 1229.43011804 499.75588989 1229.46083069 C499.05237904 1229.45511663 498.34886818 1229.44940257 497.62403882 1229.44351536 C492.61122443 1229.54491441 490.005034 1231.13427354 486 1234 C482.625 1233.75 482.625 1233.75 480 1233 C478.875 1226.25 478.875 1226.25 480 1224 C481.5666269 1223.44988674 483.1548801 1222.96101731 484.75 1222.5 C489.81554268 1220.7386479 493.725253 1218.35927522 497.9375 1215.125 C498.48051758 1214.71443359 499.02353516 1214.30386719 499.58300781 1213.88085938 C503.75165798 1210.56565408 506.62221919 1206.84741368 508.9375 1202.0625 C509.2957301 1190.24090673 495.06015771 1176.84258352 488 1168 C487.54157715 1167.41976074 487.0831543 1166.83952148 486.61083984 1166.24169922 C480.69147619 1158.79079491 475.36086234 1152.12028745 466 1149 C465.25881795 1146.68925595 464.59793673 1144.35188447 464 1142 C462.84739128 1138.88145784 462.84739128 1138.88145784 460.1953125 1137.1015625 C453.44918986 1133.7164974 448.93329809 1128.25827165 445.25 1121.8125 C439.79827097 1112.47288454 432.26128325 1104.00162021 422.625 1098.875 C417.5516303 1096.16209956 415.45804007 1092.5479256 412.62890625 1087.64453125 C411.15260622 1085.24775638 409.8078664 1083.63272883 407.75 1081.75 C404.13175086 1078.39946885 401.45791978 1074.56922503 398.625 1070.5625 C391.66111571 1060.42435011 391.66111571 1060.42435011 381.46875 1054.26171875 C377.80054318 1052.38698647 376.91308207 1049.24386951 375.375 1045.625 C371.50556338 1037.24966922 366.5386436 1031.41097134 360 1025 C359.12730469 1024.10410156 358.25460937 1023.20820312 357.35546875 1022.28515625 C353.66995779 1018.52038699 349.92903927 1014.87685004 345.9375 1011.4375 C338.61444931 1005.07916258 332.59596872 998.6353108 327.125 990.625 C320.99579037 981.66542286 314.1146716 974.40269769 305.75 967.4375 C300.47168563 962.92871401 296.37464179 957.19830698 293.63671875 950.828125 C291.62046461 947.34419183 290.37838181 947.04517901 286.625 945.8125 C279.28986134 942.475144 276.28048822 937.11649186 272.07983398 930.44775391 C268.35437766 924.65604553 264.39747068 920.1741874 259.1875 915.6875 C253.02735064 910.36355947 249.48073598 905.25841157 245.75 898.0703125 C241.92232248 891.354789 236.06503784 887.69386629 229.2734375 884.3359375 C223.7827227 881.10943499 219.99606196 877.05281852 216.1875 872 C215.54639282 871.15949097 215.54639282 871.15949097 214.89233398 870.30200195 C212.73565621 867.44515068 210.67937542 864.55323203 208.7421875 861.54296875 C204.41882837 854.85720267 200.26045677 850.0860043 193.48046875 845.78125 C189.12954238 842.65680523 186.78594011 838.81754849 184.5 834.0625 C180.45494786 826.45615514 174.76461518 820.32969236 169 814 C168.36964844 813.28585937 167.73929687 812.57171875 167.08984375 811.8359375 C163.74857012 808.24016882 160.16418072 805.79011295 156 803.1875 C149.93315096 799.24329542 146.71622067 795.1140482 143 789 C141.41848023 786.50582178 139.80847078 784.03119133 138.1875 781.5625 C137.77048828 780.9240918 137.35347656 780.28568359 136.92382812 779.62792969 C133.35857848 774.28549835 129.30518777 769.67410865 124.8359375 765.07421875 C123 763 123 763 123 761 C122.42894531 760.76539063 121.85789062 760.53078125 121.26953125 760.2890625 C118.4705495 758.69927941 116.8010705 756.8001626 114.6875 754.375 C113.89988281 753.48425781 113.11226563 752.59351563 112.30078125 751.67578125 C110.88101653 750.02461176 109.4785625 748.35814806 108.10546875 746.66796875 C107.53441406 745.97316406 106.96335937 745.27835938 106.375 744.5625 C105.64410156 743.63630859 105.64410156 743.63630859 104.8984375 742.69140625 C98.91152581 737.35738822 91.82263705 737.38974779 84.1875 737.125 C83.15818359 737.06570313 82.12886719 737.00640625 81.06835938 736.9453125 C73.44518303 736.63672092 66.74261677 737.55086236 59.90234375 741.08325195 C53.22743319 744.29992151 43.52062932 742.04292448 36.625 740.5 C25.94359191 738.15719636 15.75330665 738.25026059 5.046875 740.47265625 C-4.41364123 742.11005329 -14.59010406 743.81602257 -23.24609375 738.9375 C-25.92927268 737.50328409 -28.04353764 737.51871543 -31 738 C-31.53592773 738.49798096 -32.07185547 738.99596191 -32.62402344 739.5090332 C-36.15649619 741.72572156 -39.66584425 741.37009172 -43.703125 741.29296875 C-44.54091492 741.28872391 -45.37870483 741.28447906 -46.24188232 741.28010559 C-48.91158502 741.26334408 -51.58052637 741.22569711 -54.25 741.1875 C-56.06248908 741.17244987 -57.87499002 741.15876203 -59.6875 741.14648438 C-64.12529231 741.11344889 -68.56251717 741.06168443 -73 741 C-73.33 740.01 -73.66 739.02 -74 738 C-76.61749674 739.37762986 -78.61033183 740.46863431 -80.375 742.875 C-81.61635397 747.0956035 -79.56889093 751.61796355 -78.4375 755.75 C-75.46181958 767.88841915 -78.10268781 778.30806342 -82 790 C-82.86153504 796.81843445 -81.91125023 801.23930522 -77.99609375 806.89453125 C-76.1466457 810.80375674 -78.27803325 814.90438599 -79.53540039 818.83325195 C-81.51789773 826.05509354 -81.45376387 833.24333469 -81.43359375 840.66796875 C-81.4381668 842.15766129 -81.44347567 843.64735172 -81.44947815 845.13703918 C-81.4583519 848.2391525 -81.45604954 851.34100752 -81.44604492 854.44311523 C-81.43451894 858.40060671 -81.45485043 862.35721063 -81.48396206 866.31458569 C-81.50237466 869.38342351 -81.50202236 872.4520501 -81.49632454 875.52092934 C-81.49617217 876.97965052 -81.50214578 878.43838679 -81.51461601 879.89705467 C-81.57364699 887.92646475 -81.25577215 894.00766798 -77 901 C-76.5625 904.75 -76.5625 904.75 -77 908 C-77.72703125 908.86625 -77.72703125 908.86625 -78.46875 909.75 C-81.74174861 914.55930408 -81.22668865 921.33874927 -81 927 C-80.21268583 929.40241193 -79.25970994 931.24340337 -77.9375 933.3828125 C-76.39427285 936.04487933 -76.57152573 938.00068009 -77 941 C-77.6884606 943.33081238 -78.45717444 945.61827517 -79.265625 947.91015625 C-82.40998102 956.85819066 -80.97818944 965.36168285 -78.625 974.3125 C-77.13669207 980.12207855 -75.82509614 985.70339153 -75.25 991.6875 C-74.5543283 996.17415305 -73.14264991 998.40992499 -70.0390625 1001.6953125 C-69.22630859 1002.56212646 -68.41355469 1003.42894043 -67.57617188 1004.32202148 C-66.72603516 1005.20575439 -65.87589844 1006.0894873 -65 1007 C-64.19626953 1007.84699463 -63.39253906 1008.69398926 -62.56445312 1009.56665039 C-60.10823446 1012.1311301 -57.62130966 1014.66207319 -55.125 1017.1875 C-54.30386719 1018.03763672 -53.48273438 1018.88777344 -52.63671875 1019.76367188 C-44.54626099 1027.93617016 -35.6803201 1033.75424312 -25 1038 C-25.33 1038.99 -25.66 1039.98 -26 1041 C-37.68755867 1043.92188967 -50.22944409 1043.02487516 -61.109375 1038.12890625 C-66.46361166 1036.03785977 -71.91582443 1035.83694389 -77.3203125 1037.875 C-79.41388707 1038.89158182 -79.41388707 1038.89158182 -81.24609375 1040.02734375 C-85.39844922 1042.33009767 -89.90271161 1042.23376947 -94.546875 1042.38671875 C-95.27690735 1042.41224319 -96.0069397 1042.43776764 -96.75909424 1042.46406555 C-98.30220765 1042.51596855 -99.84540565 1042.56540777 -101.38867188 1042.61254883 C-103.72841015 1042.68681471 -106.06712949 1042.77767628 -108.40625 1042.86914062 C-109.91142553 1042.91769435 -111.4166336 1042.96525188 -112.921875 1043.01171875 C-113.611745 1043.04077805 -114.30161499 1043.06983734 -115.01239014 1043.09977722 C-120.65040254 1043.24296146 -126.65045123 1042.87963902 -131.1875 1039.25 C-131.785625 1038.8375 -132.38375 1038.425 -133 1038 C-135.53439151 1038.69695767 -137.50492874 1039.69735607 -139.73925781 1041.06323242 C-144.38951965 1042.99012818 -149.71568683 1042.33159921 -154.6796875 1042.31567383 C-156.72971643 1042.3125311 -158.77827609 1042.33592697 -160.828125 1042.36132812 C-168.01137694 1042.36486319 -173.45181402 1041.94159848 -180 1039 C-183.6800923 1039.19368907 -186.66917033 1039.89238532 -190.16577148 1041.02978516 C-194.48753358 1042.12336571 -198.35227108 1042.32322767 -202.78515625 1042.3359375 C-203.60447128 1042.3425943 -204.42378632 1042.3492511 -205.26792908 1042.35610962 C-206.98987601 1042.36618002 -208.71186154 1042.37092839 -210.43383789 1042.37060547 C-213.05875829 1042.37499374 -215.68201527 1042.41141197 -218.30664062 1042.44921875 C-219.98697347 1042.45508525 -221.66731422 1042.45905576 -223.34765625 1042.4609375 C-224.12593277 1042.47530853 -224.90420929 1042.48967957 -225.70606995 1042.50448608 C-230.96620531 1042.46061303 -233.73632689 1041.31106227 -238 1038 C-239.64619113 1037.28426473 -241.30728055 1036.5974304 -243 1036 C-243 1035.01 -243 1034.02 -243 1033 C-241.97261719 1032.64808594 -240.94523437 1032.29617188 -239.88671875 1031.93359375 C-219.14544611 1024.63322812 -206.96981493 1012.90042178 -195.53632164 994.42451763 C-194.54392193 992.85838034 -193.51186523 991.31637742 -192.43444252 989.80746937 C-187.81334008 982.99514136 -187.14515247 977.58067996 -187.25537109 969.46948242 C-187.24806976 968.2568573 -187.24076843 967.04423218 -187.23324585 965.79486084 C-187.21989776 962.49922626 -187.23312548 959.20509332 -187.25991011 955.9095819 C-187.28270234 952.44861758 -187.27431227 948.98770554 -187.27041626 945.52668762 C-187.26865657 939.72242746 -187.29068946 933.91863731 -187.32763672 928.11450195 C-187.37006328 921.41136073 -187.37696727 914.70890481 -187.3645128 908.00565642 C-187.35311623 901.53959655 -187.36442104 895.07377704 -187.38685989 888.60775185 C-187.39612967 885.86261852 -187.39790948 883.11763271 -187.3936882 880.37248802 C-187.38921418 876.54258148 -187.41816539 872.71332445 -187.45068359 868.88354492 C-187.44572876 867.74838943 -187.44077393 866.61323395 -187.43566895 865.44367981 C-187.51489658 859.60521706 -187.62775487 856.27519178 -192 852 C-192.74051714 847.37176788 -191.74757112 844.12162612 -190.0625 839.875 C-186.25638823 829.81984655 -187.00113383 819.9017191 -187.48828125 809.34765625 C-188.09893398 794.89416985 -188.08126623 780.46345374 -188 766 C-187.97343004 761.10416948 -187.95353304 756.20837492 -187.9375 751.3125 C-187.92505249 749.64574219 -187.92505249 749.64574219 -187.91235352 747.9453125 C-187.90739868 746.41970703 -187.90739868 746.41970703 -187.90234375 744.86328125 C-187.89710693 743.96907471 -187.89187012 743.07486816 -187.88647461 742.15356445 C-187.85887843 739.94931892 -187.85887843 739.94931892 -189 738 C-195.50620719 737.89705479 -202.01219831 737.82790076 -208.51904297 737.78027344 C-210.7242009 737.76038114 -212.9293077 737.73325744 -215.13427734 737.69824219 C-227.65794274 737.50460662 -239.25483067 737.83436052 -251.39648438 741.09106445 C-254.56602481 741.89053593 -257.3755296 742.27728475 -260.625 742.4375 C-270.63643781 743.29914014 -277.71520153 752.2506991 -284.38232422 758.99121094 C-286.11758458 760.74251602 -287.86825188 762.47724969 -289.62109375 764.2109375 C-297.07660045 771.65162489 -303.28459939 778.97666343 -307.875 788.5625 C-308.48988281 789.83287109 -308.48988281 789.83287109 -309.1171875 791.12890625 C-309.40851563 791.74636719 -309.69984375 792.36382813 -310 793 C-310.99 792.67 -311.98 792.34 -313 792 C-314.25248502 789.49502996 -314.11374406 787.79146726 -314.09765625 784.9921875 C-314.09443359 784.00605469 -314.09121094 783.01992188 -314.08789062 782.00390625 C-314.07532227 780.45509766 -314.07532227 780.45509766 -314.0625 778.875 C-314.05798828 777.83472656 -314.05347656 776.79445313 -314.04882812 775.72265625 C-314.03701952 773.14838038 -314.02055075 770.57421854 -314 768 C-315.32 767.67 -316.64 767.34 -318 767 C-318 761.06 -318 755.12 -318 749 C-317.01 748.67 -316.02 748.34 -315 748 C-314.505 710.38 -314.505 710.38 -314 672 C-315.32 672 -316.64 672 -318 672 C-318 658.47 -318 644.94 -318 631 C-317.01 630.67 -316.02 630.34 -315 630 C-314.67 618.12 -314.34 606.24 -314 594 C-315.32 593.67 -316.64 593.34 -318 593 C-318 587.06 -318 581.12 -318 575 C-313.79621031 576.05094742 -313.16057407 576.57408605 -310.97924805 580.07641602 C-309.87862008 582.23843242 -309.12663473 584.42318098 -308.33203125 586.71484375 C-306.12804266 592.29716067 -302.91210723 595.94644894 -298.6875 600.125 C-297.39841212 601.43880299 -296.11064775 602.75390592 -294.82421875 604.0703125 C-294.19008057 604.71282959 -293.55594238 605.35534668 -292.90258789 606.01733398 C-290.96466494 608.03682228 -289.12056753 610.11428653 -287.2890625 612.23046875 C-280.21061992 620.40902718 -271.95326683 627.86140357 -261 630 C-258.61623754 630.08813797 -256.23011434 630.11763813 -253.84472656 630.11352539 C-253.13213181 630.11367142 -252.41953705 630.11381744 -251.68534851 630.1139679 C-249.33707605 630.11327291 -246.98888355 630.10549994 -244.640625 630.09765625 C-243.00966434 630.0957906 -241.37870312 630.09436739 -239.7477417 630.09336853 C-235.46025031 630.08955494 -231.17279292 630.07973454 -226.88531494 630.06866455 C-222.50818339 630.05842553 -218.13104633 630.05386557 -213.75390625 630.04882812 C-205.16925525 630.03811123 -196.58463186 630.02104872 -188 630 C-187.99641747 628.53508275 -187.99641747 628.53508275 -187.99276257 627.04057121 C-187.93386711 603.23507586 -187.85792243 579.42968091 -187.76428509 555.62429619 C-187.71939336 544.11200758 -187.67996348 532.59974944 -187.65356445 521.08740234 C-187.63053068 511.04873234 -187.59707277 501.01015932 -187.55129844 490.97156632 C-187.52743867 485.6603091 -187.5086625 480.3491475 -187.50238609 475.03783798 C-187.49630235 470.02930847 -187.47618466 465.02102339 -187.44572449 460.01258469 C-187.4369967 458.18339236 -187.43321065 456.35416803 -187.43499184 454.52495575 C-187.4452018 439.18903454 -185.33011747 426.14363694 -179.3125 411.875 C-178.87333252 410.80386963 -178.43416504 409.73273926 -177.98168945 408.62915039 C-176.66382777 405.41547609 -175.33265852 402.20756076 -174 399 C-172.55120956 395.48367751 -171.11438459 391.9627646 -169.6875 388.4375 C-169.35645264 387.62708252 -169.02540527 386.81666504 -168.68432617 385.98168945 C-166.9111957 381.56439335 -165.43053642 377.17663708 -164.17993164 372.58569336 C-162.03696163 364.77276223 -158.76880606 359.36423846 -153.6171875 353.22265625 C-150.87557221 349.94261762 -148.62368624 346.44137379 -146.375 342.8125 C-138.36794966 330.08638598 -129.48000416 320.91633834 -117.00024414 312.55737305 C-113.11013187 309.90127243 -109.68225434 306.99392763 -106.25 303.75 C-94.07046487 292.290653 -80.29512854 283.036172 -66.4375 273.75 C-65.39959824 273.05141373 -65.39959824 273.05141373 -64.34072876 272.3387146 C-50.6137479 263.12028913 -36.85331603 254.71412177 -21.375 248.75 C-10.13854695 244.59232621 -10.13854695 244.59232621 -2.1875 236 C-0.20932264 231.00249931 0.12307711 226.56670613 0.10920715 221.20870972 C0.10880029 220.53841268 0.10839342 219.86811564 0.10797423 219.17750657 C0.10528367 216.93844845 0.09527804 214.6994854 0.08520508 212.46044922 C0.08160756 210.85196513 0.07840298 209.24348011 0.07556152 207.63499451 C0.06619826 203.26896028 0.04986361 198.90298077 0.03119111 194.53697729 C0.01953666 191.80595608 0.0088744 189.07493256 -0.00155067 186.3439064 C-0.03478351 177.78968336 -0.07282112 169.23549879 -0.11691588 160.68132484 C-0.16758432 150.82483233 -0.20186584 140.96846103 -0.22209662 131.11186016 C-0.23881427 123.48184007 -0.27073729 115.85197499 -0.31394273 108.22205937 C-0.33935657 103.6705108 -0.35836162 99.11915485 -0.36131859 94.56753159 C-0.36448793 90.28112089 -0.38663345 85.99521039 -0.42287445 81.70895576 C-0.43292459 80.14297022 -0.43634471 78.57692462 -0.43234444 77.01091194 C-0.40862128 65.51427797 -1.35022985 55.2444828 -9.375 46.375 C-12.17309963 43.1621983 -14.73099936 40.04381666 -17 36.4375 C-25.8239519 22.81156323 -37.0464726 13.86985711 -52 8 C-51.34 6.68 -50.68 5.36 -50 4 C-33.83 3.67 -17.66 3.34 -1 3 C-0.67 2.01 -0.34 1.02 0 0 Z M94 19 C93.62875 20.258125 93.2575 21.51625 92.875 22.8125 C92.66617187 23.52019531 92.45734375 24.22789063 92.2421875 24.95703125 C91.73906252 27.31145413 91.73906252 27.31145413 94 30 C96.54207971 30.33343551 96.54207971 30.33343551 99 30 C100.22514289 28.96123766 100.22514289 28.96123766 100.4375 26.75 C99.76954321 22.55141445 97.3691394 21.45666415 94 19 Z M27 24 C26.979375 24.845625 26.95875 25.69125 26.9375 26.5625 C25.773512 30.830456 23.82879182 32.50302369 20.59375 35.38671875 C18.74911975 37.01637706 18.74911975 37.01637706 18 40 C18.66 40.99 19.32 41.98 20 43 C24.02059277 42.43767933 26.20988015 40.40654711 29.1875 37.75 C30.06792969 36.98171875 30.94835937 36.2134375 31.85546875 35.421875 C34.16279842 32.8161475 34.86218993 31.45099381 35 28 C33.41666667 25.58333333 33.41666667 25.58333333 31 24 C29.68 24 28.36 24 27 24 Z M75 24 C75 26.97 75 29.94 75 33 C77.32854463 34.19838209 77.32854463 34.19838209 80 35 C80.99 34.34 81.98 33.68 83 33 C82.5601982 28.81159676 82.5601982 28.81159676 80.6875 25.125 C78.78332024 23.63019987 78.78332024 23.63019987 75 24 Z M547 293 C546.67 294.65 546.34 296.3 546 298 C547.485 298.99 547.485 298.99 549 300 C548.67 297.69 548.34 295.38 548 293 C547.67 293 547.34 293 547 293 Z M213.68460083 298.32461548 C209.99654387 299.25244674 206.85622814 299.23138475 203.0625 299.0625 C198.0125326 298.84211621 198.0125326 298.84211621 193.15869141 300 C189.88234043 301.03724947 187.4683657 301.19121395 184.05078125 301.08984375 C182.40819336 301.05987305 182.40819336 301.05987305 180.73242188 301.02929688 C178.44065606 300.96778174 176.14898488 300.90264059 173.85742188 300.83398438 C172.76623047 300.81529297 171.67503906 300.79660156 170.55078125 300.77734375 C169.55731689 300.74890381 168.56385254 300.72046387 167.5402832 300.69116211 C164.54133638 301.05576256 163.92379152 301.77770723 162 304 C158.98341911 305.00552696 156.45418029 305.1165814 153.30053711 305.18920898 C144.50346056 305.42816088 138.00262176 307.21894476 130 311 C125.31501626 312.68338769 120.83047168 313.10002811 115.875 313.375 C109.74650184 313.77084302 104.34090822 315.16704821 98.4921875 316.984375 C95.22014966 317.93597437 92.04240428 318.550811 88.6875 319.125 C80.43684827 320.78074304 72.85766851 324.11381987 65.14526367 327.42041016 C58.47792091 330.22621736 52.17540656 332.04037925 45 333 C44.67 333.99 44.34 334.98 44 336 C42.171875 337.06542969 42.171875 337.06542969 40 338 C39.07960938 338.48194824 39.07960938 338.48194824 38.140625 338.97363281 C33.53030946 341.36213823 28.9292172 343.14519279 24 344.75 C-2.40610465 353.75704972 -23.21914643 370.83521678 -43 390 C-44.36898437 391.32451172 -44.36898437 391.32451172 -45.765625 392.67578125 C-50.4131049 397.25212626 -54.87525489 401.94478913 -59 407 C-59.57492187 407.68964844 -60.14984375 408.37929688 -60.7421875 409.08984375 C-70.47720854 421.7453711 -74.47411324 438.84542219 -79.28417969 453.83618164 C-79.90914483 455.72535834 -80.60688492 457.59014653 -81.31640625 459.44921875 C-81.54199219 460.29097656 -81.76757812 461.13273438 -82 462 C-81.00628144 463.35808204 -80.00800941 464.7133144 -78.9765625 466.04296875 C-76.73371695 470.53763123 -77.24685929 476.15996338 -78 481 C-78.63848948 482.20209161 -79.30976723 483.38706776 -80.00439453 484.55761719 C-82.54772586 489.5217516 -82.54547297 494.00081799 -82.4609375 499.4921875 C-82.46002106 500.47816925 -82.45910461 501.464151 -82.4581604 502.48001099 C-82.45214632 504.55589642 -82.4364668 506.63177407 -82.41162109 508.70751953 C-82.37518811 511.85872968 -82.37060188 515.00875762 -82.37109375 518.16015625 C-82.36125758 520.18751001 -82.3495984 522.21485591 -82.3359375 524.2421875 C-82.33371185 525.17167206 -82.33148621 526.10115662 -82.32919312 527.05880737 C-82.21748282 534.88901996 -81.21504032 542.21799976 -78.25 549.5 C-76.27719904 555.15934821 -77.51023426 560.32826869 -79.72511292 565.78713989 C-82.30672686 572.47664377 -82.42035585 578.69529588 -82.36328125 585.8046875 C-82.36377975 587.00562042 -82.36427826 588.20655334 -82.36479187 589.44387817 C-82.36246239 591.96683417 -82.35280091 594.48979298 -82.33618164 597.01269531 C-82.31244682 600.88367293 -82.31564722 604.75396739 -82.32226562 608.625 C-82.31669301 611.08073329 -82.30958576 613.53646367 -82.30078125 615.9921875 C-82.30169266 617.15152802 -82.30260406 618.31086853 -82.30354309 619.50534058 C-82.29401108 620.57720612 -82.28447906 621.64907166 -82.2746582 622.75341797 C-82.27005081 623.69667938 -82.26544342 624.6399408 -82.26069641 625.61178589 C-82.15689265 628.2642236 -82.15689265 628.2642236 -80 631 C-77.5029505 631.30260582 -75.25212921 631.40962301 -72.75219727 631.38818359 C-72.00569916 631.39344055 -71.25920105 631.39869751 -70.49008179 631.40411377 C-68.0153122 631.4173486 -65.54118271 631.40856287 -63.06640625 631.3984375 C-61.35009131 631.40045746 -59.63377721 631.40336824 -57.91746521 631.40713501 C-54.31688278 631.41156325 -50.71652334 631.40511216 -47.1159668 631.39111328 C-42.49760688 631.37403385 -37.87977042 631.38385137 -33.26142979 631.40183067 C-29.71583607 631.41266608 -26.17036665 631.40922309 -22.62476921 631.4014473 C-20.92189408 631.39944394 -19.21900772 631.4019093 -17.51614571 631.40888596 C-15.13619188 631.41649515 -12.75708772 631.40490391 -10.37719727 631.38818359 C-9.31807884 631.39729263 -9.31807884 631.39729263 -8.23756409 631.40658569 C-5.36069263 631.36909388 -3.45069094 631.31924504 -1.06417847 629.62876892 C1.39976873 625.85759638 0.46568187 620.53007024 0.4375 616.1875 C0.45748047 615.10662109 0.47746094 614.02574219 0.49804688 612.91210938 C0.49411258 606.50314913 0.05153248 602.97556621 -4 598 C-4.5 594.4375 -4.5 594.4375 -4 591 C-3.34192856 590.30721954 -2.68385712 589.61443909 -2.00584412 588.90066528 C0.88702875 584.71726148 0.59520783 581.12995628 0.59350586 576.15185547 C0.60866241 575.16417679 0.62381897 574.17649811 0.63943481 573.15888977 C0.68420402 569.8948843 0.70026278 566.63145709 0.71484375 563.3671875 C0.73745588 561.09138709 0.76136516 558.81559923 0.78651428 556.53982544 C0.83486887 551.76679222 0.86936329 546.99391723 0.89379883 542.22070312 C0.92583928 536.12439797 0.9890881 530.02891286 1.06249142 523.93298149 C1.11612928 519.22995936 1.15448921 514.52690724 1.18820381 509.82370377 C1.20583401 507.57755858 1.22778621 505.33144278 1.25425529 503.08538437 C1.28882195 499.93164343 1.30312356 496.7784161 1.31225586 493.62451172 C1.33303444 492.25092751 1.33303444 492.25092751 1.35423279 490.84959412 C1.34436667 485.06054972 0.42459722 480.05198922 -1.26927853 474.51490974 C-2.36525305 470.74291574 -3.16563511 466.94211563 -3 463 C-1.625 460.8125 -1.625 460.8125 0 459 C0.93567439 454.75376413 1.12196482 450.68991733 1.11352539 446.35205078 C1.11344986 445.05115509 1.11337433 443.7502594 1.11329651 442.40994263 C1.10819101 441.00506552 1.10297504 439.60018881 1.09765625 438.1953125 C1.09578923 436.74657236 1.09436667 435.29783158 1.09336853 433.84909058 C1.08956573 430.05153637 1.07975474 426.25402092 1.06866455 422.45648193 C1.05840215 418.57515995 1.05386059 414.69383166 1.04882812 410.8125 C1.0381303 403.20831574 1.02108098 395.60416332 1 388 C2.65563965 387.81449585 2.65563965 387.81449585 4.34472656 387.62524414 C8.72959035 386.87520165 9.84561833 385.71744827 12.75 382.4375 C19.58882012 375.20492963 26.46582211 369.13754498 36.28125 366.69921875 C39.53771796 365.86170759 42.64847218 364.76251 45.8125 363.625 C47.01777344 363.19316406 48.22304688 362.76132812 49.46484375 362.31640625 C51.63789988 361.50721297 53.80019256 360.66738344 55.94140625 359.77734375 C69.96028176 353.97192393 87.69083931 347.99612061 103 349 C105.40779789 352.61169684 105.20912158 355.11828381 105.08984375 359.2734375 C105.06938332 360.75390243 105.0492109 362.23437137 105.02929688 363.71484375 C104.98625637 366.02930445 104.93824455 368.34350001 104.88354492 370.65771484 C104.48635566 386.23776602 104.48635566 386.23776602 109 401 C109.39753153 405.1343279 109.59742999 407.22873883 107.00311279 410.57791138 C104.23101964 415.31371481 104.5071481 419.11824139 104.63769531 424.50341797 C104.65144951 426.07018028 104.65144951 426.07018028 104.66548157 427.66859436 C104.70046603 431.1103231 104.76414495 434.55088588 104.828125 437.9921875 C104.85803225 440.38255704 104.88614495 442.77294965 104.91253662 445.1633606 C104.98672935 451.4469596 105.08527967 457.72994918 105.18890381 464.01312256 C105.29038661 470.42782918 105.3688336 476.84281294 105.44921875 483.2578125 C105.61026624 495.83891502 105.79626483 508.41952006 106 521 C106.99 521 107.98 521 109 521 C109.66 520.34 110.32 519.68 111 519 C111.94875 518.835 112.8975 518.67 113.875 518.5 C117.56516323 516.72872165 117.61943643 516.12921917 118.9375 512.4375 C119.24945313 511.54289063 119.56140625 510.64828125 119.8828125 509.7265625 C122.65643679 502.95736754 128.08339291 497.75540511 133.2578125 492.73046875 C140.53550574 485.5017286 146.85112324 477.22073068 153.22265625 469.203125 C157.06630636 464.40364656 160.97554242 459.98757753 165.4375 455.75 C169.16065665 452.18217044 169.16065665 452.18217044 171 447.4375 C172.20195049 443.30579518 173.60861537 442.39528552 176.875 439.6875 C180.44543171 436.68853965 182.45503643 434.73872205 183.75 430.25 C185.70084157 424.21079188 189.95052074 421.07606606 194.58618164 417.03051758 C199.66689414 412.52040513 203.08989223 407.89444947 206.80078125 402.1875 C210.25867611 397.17570212 214.39819627 392.87993114 218.59277344 388.48388672 C220.92906248 386.02032585 223.2119365 383.50826566 225.5 381 C228.27425689 377.96629092 231.05405823 374.93836229 233.85546875 371.9296875 C238.75591752 366.65312256 243.46551753 361.29668621 247.91015625 355.625 C250.35820556 352.55006703 252.88941406 349.55458718 255.4375 346.5625 C258.81374108 342.59574864 262.15424985 338.60708352 265.4375 334.5625 C268.83877402 330.38655859 272.3048184 326.27387291 275.8125 322.1875 C276.31031982 321.60572998 276.80813965 321.02395996 277.32104492 320.42456055 C279.99784307 317.30341305 282.69873112 314.20715683 285.43359375 311.13671875 C285.98877686 310.50677002 286.54395996 309.87682129 287.1159668 309.2277832 C288.18353934 308.01729343 289.25893711 306.81364822 290.34301758 305.61791992 C293.16522934 302.40140418 294 301.44281194 294 297 C285.0979724 296.7985737 276.19579836 296.61501331 267.29295826 296.45341206 C263.15771743 296.37780713 259.02277395 296.29636202 254.88793945 296.20092773 C250.88752469 296.10882155 246.88708278 296.03289502 242.88614464 295.96755028 C241.37005087 295.94006649 239.85404578 295.9070366 238.33820534 295.86800575 C229.79810088 295.65212395 222.0043988 296.05011618 213.68460083 298.32461548 Z M420 307 C418.26154641 309.19582278 418.26154641 309.19582278 416.9375 311.8125 C415.35838673 314.63551835 413.91520924 317.10474153 411.875 319.625 C410.18919949 321.76034731 409.32686803 323.42161371 408.25 325.875 C406.27533711 329.99402336 403.64561833 332.35813046 400.14453125 335.22265625 C394.50588074 339.89585476 389.59331148 345.34475457 384.83203125 350.890625 C382.84688413 353.17629546 380.7996017 355.39701378 378.75 357.625 C374.6846516 362.12444492 370.94608875 366.81794105 367.23413086 371.60693359 C364.02106951 375.73921134 360.71194871 379.76989827 357.3125 383.75 C353.42643082 388.30090818 349.61806435 392.89995748 345.91015625 397.59765625 C344.58301472 399.26676063 343.23500446 400.91939832 341.87109375 402.55859375 C337.02424717 408.42301034 333.5948505 414.00005341 330.78515625 421.046875 C328.54002836 424.76091589 326.71296332 425.33519349 322.75 427 C312.57721446 432.02900235 307.63264668 442.00317153 301.76220703 451.2734375 C291.91907613 466.50315292 279.72153924 480.0740447 267.4375 493.34765625 C265.48256122 495.47490534 263.57117955 497.62272252 261.6875 499.8125 C258.8695685 503.07179427 255.93581549 506.20865087 252.98095703 509.34301758 C247.49931347 515.15996293 242.1923615 521.02118071 237.19921875 527.26953125 C234.73074051 530.33430264 232.18311718 533.32266702 229.625 536.3125 C225.80835091 540.78210195 222.1510725 545.34594911 218.5625 550 C212.55371875 557.75326612 206.08275377 565.20364101 198.94189453 571.94213867 C192.67224251 577.92594236 187.90105579 584.47650863 183.125 591.6875 C182.3732318 592.80069522 181.62063052 593.9133283 180.8671875 595.02539062 C176.84949341 600.98975375 176.84949341 600.98975375 173.37475586 607.27563477 C171.92761689 610.14344222 171.2365815 610.87091183 168.4375 612.25 C162.83398222 615.46393571 157.91588611 619.86441166 154 625 C153.53943861 627.66981967 153.53943861 627.66981967 154 630 C155.72401716 631.72401716 157.93378324 631.13148483 160.23338616 631.14561841 C160.99185495 631.14516744 161.75032374 631.14471646 162.53177643 631.14425182 C163.73496145 631.14941394 163.73496145 631.14941394 164.96245325 631.15468034 C167.6851398 631.16511362 170.40778929 631.16834664 173.13049316 631.17167664 C175.08834829 631.17766838 177.04620214 631.184093 179.00405455 631.19091636 C184.41156343 631.20845982 189.81907031 631.21969465 195.22659731 631.22992671 C201.04822039 631.24200158 206.86982642 631.25977746 212.69143677 631.27679443 C224.10908466 631.30917888 235.52673918 631.33597535 246.94440621 631.36059722 C256.22396313 631.38062853 265.50351506 631.4022246 274.7830658 631.42493629 C277.45129124 631.43144792 280.11951668 631.43795782 282.78774214 631.44446212 C283.45102926 631.44607938 284.11431639 631.44769664 284.79770312 631.44936291 C303.46642963 631.49481772 322.13516021 631.53805383 340.80390167 631.57690716 C341.50835017 631.57837444 342.21279867 631.57984172 342.9385941 631.58135347 C346.50924904 631.58878669 350.07990402 631.5962042 353.65055901 631.60361841 C354.35973517 631.6050914 355.06891134 631.60656439 355.79957769 631.60808203 C357.23370821 631.61106069 358.66783874 631.61403799 360.10196926 631.6170139 C382.40361391 631.66335035 404.70522597 631.71784951 427.00683594 631.77856445 C452.04927175 631.846735 477.09171174 631.90808161 502.13418722 631.95981437 C515.39805367 631.98733801 528.66189662 632.01806687 541.92573547 632.05682945 C553.22208907 632.08978338 564.51843195 632.1157709 575.81482142 632.13268574 C581.57988043 632.14151896 587.34488382 632.15362006 593.10991287 632.17449379 C598.38776168 632.19352139 603.66554255 632.20322937 608.9434244 632.20551727 C610.8527019 632.20798211 612.76197869 632.21385728 614.67123348 632.22349032 C617.26807322 632.23608672 619.86463235 632.23620405 622.46149445 632.2332716 C623.57110364 632.24313039 623.57110364 632.24313039 624.70312917 632.25318834 C630.00895096 632.22812483 634.86775436 631.32045439 640 630 C640.09940554 624.59233876 640.17172051 619.18521772 640.21972656 613.77685547 C640.23975373 611.93984707 640.26698382 610.10290171 640.30175781 608.26611328 C640.35067065 605.61474998 640.37305763 602.96423459 640.390625 600.3125 C640.41127014 599.50071289 640.43191528 598.68892578 640.45318604 597.85253906 C640.45518544 592.68928621 639.50444074 589.18347476 636.91314697 584.70298767 C635.62473217 582.30013841 635.46709039 580.26520158 635.5 577.5625 C635.48453125 576.29599609 635.48453125 576.29599609 635.46875 575.00390625 C635.97362199 572.14915214 636.62168053 570.83468404 637.98632812 568.36499023 C641.15053289 561.33286942 640.68806059 553.71993813 640.75 546.15625 C640.7752251 544.50262834 640.80153271 542.84902287 640.82885742 541.19543457 C640.88157126 537.72911046 640.92011006 534.26299079 640.94873047 530.79638672 C640.98601067 526.43118617 641.05994476 522.06753531 641.14412689 517.703022 C641.46585994 500.18632694 641.40302631 483.37654188 637.92382812 466.12988281 C636.87135499 460.84031353 636.6226946 455.63114461 636.5 450.25 C635.34852586 417.66105182 610.35942798 390.16703592 587.95605469 368.79052734 C581.7425829 362.70465064 581.7425829 362.70465064 574 360 C573.74734375 359.41734375 573.4946875 358.8346875 573.234375 358.234375 C565.38761404 344.03074439 544.6635361 337.97949628 530.48144531 332.29980469 C525.03133364 330.11014475 519.68661011 327.90977656 514.4765625 325.19140625 C510.96003449 323.38246456 508.11530155 322.40759926 504.125 322.125 C498.33675128 321.41322 493.40930865 319.80347836 488 317.75 C478.23640868 314.08781396 468.31789341 311.98660467 458.08789062 310.04199219 C452.96760145 309.06249516 448.00448202 308.10898676 443.08984375 306.34765625 C439.24193298 304.97609733 435.86309 304.62755586 431.75 304.6875 C430.58984375 304.69136719 429.4296875 304.69523437 428.234375 304.69921875 C424.98250935 305.00162655 422.83878771 305.39737975 420 307 Z M324 368 C323.67 368.66 323.34 369.32 323 370 C323.33 370.99 323.66 371.98 324 373 C324.99 372.67 325.98 372.34 327 372 C326.67 370.68 326.34 369.36 326 368 C325.34 368 324.68 368 324 368 Z M290 424 C288.35 425.65 286.7 427.3 285 429 C285.66 429.66 286.32 430.32 287 431 C289.10820797 430.6814823 289.10820797 430.6814823 291 430 C291.6814823 428.10820797 291.6814823 428.10820797 292 426 C291.34 425.34 290.68 424.68 290 424 Z M20.375 463.5 C19.92125 463.995 19.4675 464.49 19 465 C21.475 465.495 21.475 465.495 24 466 C24 464.68 24 463.36 24 462 C21.87635519 461.77390663 21.87635519 461.77390663 20.375 463.5 Z M50 524 C51 526 51 526 51 526 Z M46 533 C44.35 534.65 42.7 536.3 41 538 C41.66 538.66 42.32 539.32 43 540 C45.10820797 539.6814823 45.10820797 539.6814823 47 539 C47.6814823 537.10820797 47.6814823 537.10820797 48 535 C47.34 534.34 46.68 533.68 46 533 Z M102 555 C100.66666667 558 100.66666667 558 102 561 C102.66 561 103.32 561 104 561 C105.33333333 558 105.33333333 558 104 555 C103.34 555 102.68 555 102 555 Z M69 558 C68.01 559.485 68.01 559.485 67 561 C69.475 561.495 69.475 561.495 72 562 C72 560.68 72 559.36 72 558 C71.01 558 70.02 558 69 558 Z M-131 589 C-131.33 589.66 -131.66 590.32 -132 591 C-131.01 592.32 -130.02 593.64 -129 595 C-128.01 594.67 -127.02 594.34 -126 594 C-126.33 592.68 -126.66 591.36 -127 590 C-128.32 589.67 -129.64 589.34 -131 589 Z M111 594 C110.67 594.99 110.34 595.98 110 597 C110.33 597.66 110.66 598.32 111 599 C111.66 599 112.32 599 113 599 C112.67 597.35 112.34 595.7 112 594 C111.67 594 111.34 594 111 594 Z M32 599 C31.83333333 601.5 31.83333333 601.5 32 604 C33.0595877 605.28322547 33.0595877 605.28322547 35.5 605.125 C37.9404123 605.28322547 37.9404123 605.28322547 39 604 C39.16666667 601.5 39.16666667 601.5 39 599 C37.9404123 597.71677453 37.9404123 597.71677453 35.5 597.875 C33.0595877 597.71677453 33.0595877 597.71677453 32 599 Z M107 611 C105.16308743 614.78187881 104.84162374 616.94568308 106 621 C109.06456796 621.30540173 109.06456796 621.30540173 111.1875 619.3125 C113.22161319 617.13150606 113.22161319 617.13150606 113.3125 614.3125 C113.24344314 612.04142874 113.24344314 612.04142874 112 611 C110.33382885 610.95936168 108.66611905 610.957279 107 611 Z M76.25 637.1875 C75.73050781 637.67025391 75.21101563 638.15300781 74.67578125 638.65039062 C72.98084163 640.25702124 72.98084163 640.25702124 71 643 C71.02199582 645.79876134 71.02199582 645.79876134 72 648 C76.756963 648.33188114 79.06646421 647.62235719 83 645 C84.65369357 644.30177383 86.31727014 643.62501395 88 643 C87.88590407 641.54077307 87.75834456 640.08259402 87.625 638.625 C87.55539062 637.81289063 87.48578125 637.00078125 87.4140625 636.1640625 C87.17107412 633.79665809 87.17107412 633.79665809 85 632 C80.7751657 632 79.07947058 634.36888417 76.25 637.1875 Z M172 642 C173.36983503 645.16115776 173.9890638 645.9927092 177 648 C177.66 646.68 178.32 645.36 179 644 C178.34 643.01 177.68 642.02 177 641 C174.0745356 640.7763932 174.0745356 640.7763932 172 642 Z M674 641 C673.34 641.66 672.68 642.32 672 643 C672.32041397 645.60280568 672.32041397 645.60280568 673 648 C675.62187494 646.95125002 676.79371361 646.35068687 678.25 643.875 C678.4975 643.25625 678.745 642.6375 679 642 C676.60280568 641.32041397 676.60280568 641.32041397 674 641 Z M88 645 C88 645.66 88 646.32 88 647 C88.66 646.67 89.32 646.34 90 646 C89.34 645.67 88.68 645.34 88 645 Z M48 645 C47.01 645.66 46.02 646.32 45 647 C44.66656449 649.54207971 44.66656449 649.54207971 45 652 C46.0595877 653.28322547 46.0595877 653.28322547 48.5 653.125 C50.9404123 653.28322547 50.9404123 653.28322547 52 652 C52.04063832 650.33382885 52.042721 648.66611905 52 647 C50.68 646.34 49.36 645.68 48 645 Z M652 659 C649.78674336 660.75729589 649.78674336 660.75729589 649.9375 662.9375 C651.66451106 666.28993323 654.57533323 666.79836254 658 668 C658.66 668 659.32 668 660 668 C660.33 668.66 660.66 669.32 661 670 C661.86850174 667.75124253 661.86850174 667.75124253 662 665 C659.99884104 661.47796023 658.78058176 660.23417453 654.875 659.0625 C653.92625 659.041875 652.9775 659.02125 652 659 Z M673 668 C674 670 674 670 674 670 Z M184 669 C184.54723683 672.37462715 185.0549 674.08235 187 677 C187.37448273 680.06394965 187.50515261 683.10511326 187.65625 686.1875 C187.81095329 689.20356057 187.81095329 689.20356057 190 692 C191.65 691.67 193.3 691.34 195 691 C194.34 690.01 193.68 689.02 193 688 C192.65625826 683.35948657 193.16916223 680.22836343 195 676 C193.6905332 674.66368764 192.37734515 673.33102075 191.0625 672 C190.33160156 671.2575 189.60070312 670.515 188.84765625 669.75 C186.64918522 667.56197398 186.64918522 667.56197398 184 669 Z M656 681 C655.34 682.65 654.68 684.3 654 686 C655.32 686 656.64 686 658 686 C657.67 684.35 657.34 682.7 657 681 C656.67 681 656.34 681 656 681 Z M133 695 C131.59541131 696.6790827 131.59541131 696.6790827 130.3125 698.8125 C129.85488281 699.52019531 129.39726562 700.22789062 128.92578125 700.95703125 C127.66424663 703.12541603 127.66424663 703.12541603 129 706 C130.49985609 707.66710346 130.49985609 707.66710346 132 709 C132.99 708.67 133.98 708.34 135 708 C135 703.71 135 699.42 135 695 C134.34 695 133.68 695 133 695 Z M179 697 C178.01 697.99 177.02 698.98 176 700 C176.66 700.66 177.32 701.32 178 702 C178 703.32 178 704.64 178 706 C177.01 706.66 176.02 707.32 175 708 C174.56172799 709.90457929 174.56172799 709.90457929 174.6875 712 C174.69136719 712.70125 174.69523437 713.4025 174.69921875 714.125 C174.85087054 716.2416577 174.85087054 716.2416577 177 718 C179.37124598 718.58488562 179.37124598 718.58488562 182 718 C185.02033737 716.06307631 185.02033737 716.06307631 187 713 C187.10140756 707.62539917 185.10677115 702.39233163 182 698 C181.01 697.67 180.02 697.34 179 697 Z M113 706 C112.01 706.66 111.02 707.32 110 708 C109.55805797 711.05456365 109.55805797 711.05456365 109.6875 714.5 C109.69136719 715.6653125 109.69523437 716.830625 109.69921875 718.03125 C109.69585581 721.11734188 109.69585581 721.11734188 112 723 C115.30683466 722.71016731 115.30683466 722.71016731 118 721 C118.07258946 718.81360547 118.08373783 716.62499611 118.0625 714.4375 C118.05347656 713.23996094 118.04445313 712.04242187 118.03515625 710.80859375 C118.02355469 709.88175781 118.01195312 708.95492187 118 708 C115.67145537 706.80161791 115.67145537 706.80161791 113 706 Z M197 708 C197.02320313 708.63808594 197.04640625 709.27617188 197.0703125 709.93359375 C197.17329738 714.64883007 196.78202421 717.14396719 193.5234375 720.7109375 C191.54502889 722.41328909 189.52710138 724.07100988 187.46875 725.67578125 C184.88243712 727.77783534 184.88243712 727.77783534 184.03125 730.48046875 C183.9941044 733.47533265 184.80407401 735.26764131 186 738 C186.57552847 741.07747865 187.00452806 744.15742418 187.4375 747.2578125 C187.86195838 750.20047693 187.86195838 750.20047693 190 753 C190.37283401 757.28759112 189.63366834 760.07919599 188 764 C188.81035868 766.1564434 188.81035868 766.1564434 190.875 766.8125 C193.05181174 767.23483983 193.05181174 767.23483983 194.6875 765.8125 C197.54148692 761.87127996 197.1055711 757.58345454 197.0625 752.86328125 C197.05871338 752.18323532 197.05492676 751.50318939 197.05102539 750.80253601 C197.03884513 748.63912516 197.02020249 746.4758499 197 744.3125 C196.97350427 741.454431 196.95348213 738.59642612 196.9375 735.73828125 C196.92009766 733.83622925 196.92009766 733.83622925 196.90234375 731.89575195 C197 729 197 729 198 728 C202.09789669 728.37943488 204.53958935 728.69305957 208 731 C209.90049221 729.09950779 209.21802011 725.90674128 209.25 723.375 C209.2094848 716.74401202 208.85847354 711.85847354 204 707 C200.19988141 706.48207372 200.19988141 706.48207372 197 708 Z M151 711 C150.34 712.32 149.68 713.64 149 715 C149.66 715.66 150.32 716.32 151 717 C152.65 715.35 154.3 713.7 156 712 C154.35 711.67 152.7 711.34 151 711 Z M219 712 C218.83333333 714.5 218.83333333 714.5 219 717 C220.12534105 718.35618499 220.12534105 718.35618499 223.0625 718.0625 C224.031875 718.041875 225.00125 718.02125 226 718 C226.67958603 715.60280568 226.67958603 715.60280568 227 713 C225.16734675 710.73160017 225.16734675 710.73160017 222.4375 710.8125 C220.05310277 710.72996677 220.05310277 710.72996677 219 712 Z M241 712 C238.31335497 714.86505744 238.31335497 714.86505744 236 718 C236.03375833 720.32171592 236.03375833 720.32171592 237 722 C239.64 722 242.28 722 245 722 C244.67 719.03 244.34 716.06 244 713 C243.01 712.67 242.02 712.34 241 712 Z M228.34375 729.17578125 C226.77126803 730.94711471 226.77126803 730.94711471 226.93359375 733.41796875 C228.80554976 743.70647117 233.86360877 749.16619985 241.265625 756.23828125 C243 758 243 758 245 761 C245.99 761 246.98 761 248 761 C249.00217064 757.41672247 249.00217064 757.41672247 248 754 C247.01 753.67 246.02 753.34 245 753 C244.67 752.01 244.34 751.02 244 750 C243.01 749.67 242.02 749.34 241 749 C240.33333333 747.66666667 239.66666667 746.33333333 239 745 C238.01 744.67 237.02 744.34 236 744 C236.03480469 743.00419922 236.03480469 743.00419922 236.0703125 741.98828125 C236.3768002 735.19758634 236.3768002 735.19758634 234 729 C231.51917374 727.71957354 230.64675673 727.54086373 228.34375 729.17578125 Z M216 729 C214.70366379 730.06645115 214.70366379 730.06645115 214.9375 732.5625 C214.958125 733.366875 214.97875 734.17125 215 735 C215.66 735 216.32 735 217 735 C217.33 733.35 217.66 731.7 218 730 C217.34 729.67 216.68 729.34 216 729 Z M146 733 C145.67 734.65 145.34 736.3 145 738 C145.99 738.33 146.98 738.66 148 739 C147.67 737.02 147.34 735.04 147 733 C146.67 733 146.34 733 146 733 Z M137 742 C135.37168238 743.80961577 135.37168238 743.80961577 134 746 C134.33 746.99 134.66 747.98 135 749 C136.32 748.67 137.64 748.34 139 748 C139 746.35 139 744.7 139 743 C138.34 742.67 137.68 742.34 137 742 Z M708 751 C707.67 752.98 707.34 754.96 707 757 C709.475 757.495 709.475 757.495 712 758 C712 756.68 712 755.36 712 754 C710.07977297 752.22590192 710.07977297 752.22590192 708 751 Z M145 760 C144.49758678 762.3295947 144.49758678 762.3295947 145 765 C147.27110728 767.85484511 147.27110728 767.85484511 150 770 C150.66 770 151.32 770 152 770 C152.94778635 766.31416418 153.02143554 763.67716794 152 760 C150.9404123 758.71677453 150.9404123 758.71677453 148.5 758.875 C146.0595877 758.71677453 146.0595877 758.71677453 145 760 Z M212 768 C211.67 768.66 211.34 769.32 211 770 C213.31 770.33 215.62 770.66 218 771 C217.67 770.01 217.34 769.02 217 768 C215.35 768 213.7 768 212 768 Z M220 772 C220 772.33 220 772.66 220 773 C221.65 773 223.3 773 225 773 C225 772.67 225 772.34 225 772 C223.35 772 221.7 772 220 772 Z M194 796 C192.35 798.64 190.7 801.28 189 804 C190.98 804.99 190.98 804.99 193 806 C193.99 805.34 194.98 804.68 196 804 C196.25015873 800.41642759 196.25015873 800.41642759 196 797 C195.34 796.67 194.68 796.34 194 796 Z M234.1875 813.25 C232.74335971 814.95581172 232.74335971 814.95581172 233.3125 817.1875 C233.539375 817.785625 233.76625 818.38375 234 819 C236.64 819 239.28 819 242 819 C242.33 818.01 242.66 817.02 243 816 C241.90201742 813.73038072 241.90201742 813.73038072 240 812 C236.18185196 811.62151136 236.18185196 811.62151136 234.1875 813.25 Z " fill="#FABC86" transform="translate(318,0)"/>
<path d="M0 0 C0.79591553 -0.01149078 1.59183105 -0.02298157 2.41186523 -0.03482056 C3.27630249 -0.0422226 4.14073975 -0.04962463 5.03137207 -0.05725098 C5.94902344 -0.06864105 6.8666748 -0.08003113 7.81213379 -0.09176636 C17.41213597 -0.202437 27.01289777 -0.24985092 36.61340332 -0.29260254 C41.16066397 -0.31484528 45.70709977 -0.35657076 50.25402832 -0.41564941 C55.75711549 -0.48700037 61.25942875 -0.52347353 66.76295471 -0.53572083 C68.85202964 -0.54607751 70.94108326 -0.5683962 73.02989197 -0.60331726 C85.13723567 -0.79521294 94.17016841 -0.79609151 103.9552002 7.1673584 C103.46911789 7.94580109 102.98303558 8.72424377 102.48222351 9.52627563 C100.91761223 12.23236915 100.54947668 13.6530761 100.44348145 16.7220459 C100.40754883 17.57661377 100.37161621 18.43118164 100.33459473 19.31164551 C100.31251953 20.21278076 100.29044434 21.11391602 100.2677002 22.0423584 C100.23789062 22.97765381 100.20808105 23.91294922 100.17736816 24.87658691 C100.12078089 26.76352998 100.07056311 28.65067572 100.02697754 30.53796387 C99.96450743 32.82640952 99.85673161 35.10479661 99.72473145 37.39001465 C99.40885032 45.50901343 100.71464513 51.58136586 103.95910645 59.04626465 C105.11902147 62.68066505 104.9862909 64.51777687 103.9552002 68.1673584 C103.45560791 69.07993408 102.95601562 69.99250977 102.44128418 70.93273926 C100.08152992 76.06899425 100.28368823 81.19391771 100.13684082 86.77819824 C100.0809199 88.76676542 99.99093374 90.75427984 99.9005127 92.74157715 C99.60135507 102.08090435 101.04207433 109.87389961 103.74084473 118.75183105 C103.9552002 121.1673584 103.9552002 121.1673584 102.51104736 123.04185486 C97.91788705 129.31675043 99.80967699 140.96547395 99.8223877 148.39001465 C99.82143097 149.64833603 99.82047424 150.90665741 99.81948853 152.20310974 C99.81881042 154.86318444 99.82012646 157.52316624 99.8248291 160.18322754 C99.83154331 164.16558948 99.8249066 168.14788615 99.81848145 172.13024902 C99.81480598 184.56600491 99.92636432 196.9858246 100.4005127 209.41345215 C100.45862625 210.98535057 100.45862625 210.98535057 100.51791382 212.58900452 C100.55925446 213.54741745 100.60059509 214.50583038 100.64318848 215.49328613 C100.69698166 216.74540138 100.69698166 216.74540138 100.75186157 218.02281189 C100.89141535 220.35144803 100.89141535 220.35144803 101.9552002 223.1673584 C102.19749756 228.255603 101.91006855 232.77797416 100.96064758 237.77920532 C99.9425958 243.71489757 99.66513399 249.42827295 99.68054199 255.44030762 C99.67543106 256.49556137 99.67032013 257.55081512 99.66505432 258.63804626 C99.65129366 262.08277244 99.65210359 265.52729573 99.65441895 268.9720459 C99.65052707 271.38432895 99.64619139 273.79661132 99.64143372 276.20889282 C99.63400252 281.24357333 99.63424206 286.27818365 99.63952637 291.31286621 C99.64534374 297.76229171 99.62832023 304.21143214 99.60518169 310.66081047 C99.590457 315.63306352 99.58957048 320.60524748 99.59269142 325.57751846 C99.59217846 327.9561533 99.58694547 330.33479202 99.5768795 332.71340561 C99.56454528 336.03271937 99.571287 339.35147163 99.58288574 342.67077637 C99.575242 343.64958267 99.56759827 344.62838898 99.5597229 345.63685608 C99.61237966 352.45361963 101.15308485 356.46418538 104.9552002 362.1673584 C104.68374178 367.68701281 103.62161517 371.27893094 100.9552002 376.1673584 C97.84813025 385.89360878 98.23678719 401.4943419 102.05578613 410.86901855 C104.63262049 415.25962613 107.90230044 418.92907422 111.44543457 422.56237793 C113.65609986 424.91246098 115.439333 427.51478631 117.2677002 430.1673584 C125.88621054 441.96482748 134.09295291 448.93577804 148.3380127 453.1907959 C151.92207758 454.52813354 153.63333767 456.18210658 155.9552002 459.1673584 C154.9552002 462.1673584 154.9552002 462.1673584 152.9552002 463.1673584 C150.15867705 463.26325742 147.38714445 463.2974654 144.59042358 463.28761292 C143.71483453 463.28846734 142.83924547 463.28932176 141.93712342 463.29020208 C138.98593457 463.2918569 136.03480183 463.28633546 133.08361816 463.28088379 C130.9749756 463.28060189 128.86633294 463.2807597 126.75769043 463.28132629 C121.01831394 463.28161417 115.27895819 463.27571903 109.53958654 463.26875234 C103.54711352 463.26251716 97.55464007 463.26191487 91.56216431 463.26072693 C80.20786719 463.2576141 68.85357966 463.24940136 57.49928677 463.23937744 C44.57566651 463.22821481 31.6520458 463.22270547 18.72842193 463.217682 C-7.86265731 463.20721871 -34.45372802 463.18962019 -61.0447998 463.1673584 C-61.3747998 461.8473584 -61.7047998 460.5273584 -62.0447998 459.1673584 C-60.9104248 458.6929834 -59.7760498 458.2186084 -58.6072998 457.7298584 C-56.74681426 456.88954401 -54.89389621 456.03244638 -53.0447998 455.1673584 C-52.07969482 454.71610596 -52.07969482 454.71610596 -51.09509277 454.2557373 C-30.93312306 444.67008112 -18.3647455 427.74977142 -10.8260498 406.7767334 C-7.76267111 397.19273432 -6.89626564 388.67947886 -6.90435791 378.67791748 C-6.90138679 377.52657499 -6.89841567 376.3752325 -6.89535451 375.18900084 C-6.88820021 372.00675719 -6.88549724 368.82454653 -6.88475704 365.64229608 C-6.88289956 362.20537737 -6.87534918 358.76847021 -6.86862183 355.33155823 C-6.85507109 347.82581395 -6.84902003 340.32007504 -6.84461117 332.81432056 C-6.84184551 328.12850901 -6.83760779 323.44269951 -6.83310699 318.75688934 C-6.82092292 305.78270218 -6.81061909 292.80851665 -6.8072319 279.83432388 C-6.80701234 279.00492565 -6.80679277 278.17552742 -6.80656655 277.32099591 C-6.80634827 276.48963861 -6.80613 275.6582813 -6.8059051 274.80173135 C-6.80546164 273.11712917 -6.80501508 271.43252698 -6.80456543 269.7479248 C-6.80423329 268.49449884 -6.80423329 268.49449884 -6.80389443 267.21575114 C-6.79994044 253.65465887 -6.7824643 240.09362014 -6.75920591 226.53254858 C-6.73551899 212.60942755 -6.72303142 198.68633345 -6.72186399 184.76319194 C-6.72094619 176.94564693 -6.71516683 169.12817185 -6.69704437 161.31064606 C-6.68167986 154.65959124 -6.67650155 148.008628 -6.68478248 141.35755882 C-6.68870083 137.96272277 -6.68770182 134.56807139 -6.67372513 131.17325783 C-6.66112621 127.49829849 -6.6668165 123.8238198 -6.67730713 120.14886475 C-6.66925072 119.06902164 -6.66119432 117.98917853 -6.65289378 116.8766129 C-6.65948363 115.89612249 -6.66607347 114.91563208 -6.67286301 113.90542984 C-6.67196737 112.63241339 -6.67196737 112.63241339 -6.67105365 111.33367944 C-7.12815948 108.68418603 -8.11890855 107.95496327 -10.0447998 106.1673584 C-9.78296342 103.61445365 -9.14678778 101.45632433 -8.2947998 99.0423584 C-8.2122998 98.4236084 -8.1297998 97.8048584 -8.0447998 97.1673584 C-9.39924281 95.39544931 -9.39924281 95.39544931 -11.0447998 94.1673584 C-9.92028253 91.19541989 -8.82186189 88.83295153 -7.0447998 86.1673584 C-6.83821163 83.74185198 -6.83821163 83.74185198 -6.9822998 80.9173584 C-7.08915102 74.54190257 -6.8558473 68.22300962 -6.5447998 61.8548584 C-5.26136648 38.0240295 -5.26136648 38.0240295 -9.7322998 14.7298584 C-11.14745393 10.39148187 -11.23959201 7.57889885 -10.0447998 3.1673584 C-7.05218272 0.17474132 -4.10595217 0.04871079 0 0 Z M80.8302002 9.0423584 C78.73465965 10.94498001 78.73465965 10.94498001 78.9552002 13.1673584 C80.9352002 13.1673584 82.9152002 13.1673584 84.9552002 13.1673584 C85.96631112 10.11822612 85.96631112 10.11822612 84.9552002 7.1673584 C82.73282181 6.94681785 82.73282181 6.94681785 80.8302002 9.0423584 Z M9.9552002 163.1673584 C9.9552002 164.1573584 9.9552002 165.1473584 9.9552002 166.1673584 C11.6052002 165.8373584 13.2552002 165.5073584 14.9552002 165.1673584 C14.9552002 164.5073584 14.9552002 163.8473584 14.9552002 163.1673584 C13.3052002 163.1673584 11.6552002 163.1673584 9.9552002 163.1673584 Z M43.9552002 228.1673584 C44.9552002 230.1673584 44.9552002 230.1673584 44.9552002 230.1673584 Z " fill="#FABC86" transform="translate(324.0447998046875,765.8326416015625)"/>
<path d="M0 0 C2.22889496 -0.05428973 4.45817471 -0.09292338 6.6875 -0.125 C8.54955078 -0.15980469 8.54955078 -0.15980469 10.44921875 -0.1953125 C13.8914739 -0.00596953 15.89014385 0.64351993 19 2 C23.64824079 2.97440195 28.18418641 3.14729782 32.91447449 3.14476013 C34.08280169 3.1500504 34.08280169 3.1500504 35.27473146 3.15544754 C37.87481081 3.16609023 40.47485347 3.16980768 43.07495117 3.17358398 C44.94286757 3.17989239 46.81078247 3.18665851 48.67869568 3.19384766 C52.6957639 3.20849336 56.71282641 3.22022759 60.7299099 3.22979546 C67.07837518 3.24526099 73.42679084 3.26920759 79.77522278 3.29469299 C97.82562123 3.36586911 115.87604736 3.42577735 133.92651367 3.47680664 C143.89954167 3.50507548 153.87251956 3.54043183 163.84549505 3.58346039 C170.16032199 3.61027606 176.47509229 3.62815394 182.78996503 3.63949764 C186.71140087 3.6486014 190.63276753 3.66595163 194.55416298 3.68567657 C196.37669923 3.69317059 198.1992532 3.69723424 200.02180481 3.69767189 C202.50350033 3.69874935 204.98484122 3.71195089 207.46647644 3.72825623 C208.19292537 3.72563937 208.91937431 3.72302252 209.66783684 3.72032636 C213.33622277 3.75815701 214.85969857 3.90646571 218 6 C217 9 217 9 215.38037109 10.00805664 C214.68508301 10.30574951 213.98979492 10.60344238 213.2734375 10.91015625 C212.49637451 11.25481934 211.71931152 11.59948242 210.91870117 11.95458984 C209.65956909 12.50300537 209.65956909 12.50300537 208.375 13.0625 C183.81918206 24.24579086 157.55046275 43.92554488 143.5625 67.25 C140.31457867 72.62221824 137.203609 75.75765116 131.55126953 78.55664062 C123.7030808 82.99668768 118.79486693 90.826904 114.0625 98.25 C112.84073005 100.11731909 111.6167808 101.98321415 110.390625 103.84765625 C109.80732422 104.73727051 109.22402344 105.62688477 108.62304688 106.54345703 C103.04235659 114.99004333 97.15778155 121.97391951 89.49609375 128.63671875 C86.60269645 131.37616377 84.65627663 134.2120101 82.60229492 137.59814453 C76.35794902 146.95847898 67.37681418 154.68048751 59.28515625 162.41210938 C54.20854981 167.38344056 50.18957405 172.32948352 46.58081055 178.45922852 C42.85125996 184.4535811 37.98015466 190.92080499 31 193 C26.33947299 192.52839905 22.04508479 191.51274003 17.5625 190.1875 C9.70898854 187.95270273 1.72971888 186.71266821 -6.34741211 185.57104492 C-11.24670287 184.83110905 -15.48971585 183.91377587 -20.01953125 181.875 C-25.5568133 179.49975837 -30.44094822 179.70468399 -36.375 180 C-46.22252123 180.26165464 -54.96351159 179.14657 -64.53125 176.953125 C-69.60494661 175.80198664 -74.5628203 175.4069902 -79.76171875 175.17578125 C-82 175 -82 175 -83 174 C-83.45583405 170.7440425 -83.65439393 168.17428792 -82.01171875 165.2265625 C-79.11306056 161.61752892 -75.83966743 159.12034492 -72 156.5625 C-67.95758027 153.8495872 -65.50998282 151.317861 -62.796875 147.33203125 C-60.45038088 144.28668997 -57.7045239 141.71640276 -54.9375 139.0625 C-47.38008883 131.72247446 -41.21214301 123.48087072 -35 115 C-29.77052199 107.87874758 -24.38254076 101.01366174 -18.58178711 94.35302734 C-15.07961274 90.31491333 -11.75857638 86.17359044 -8.5 81.9375 C-1.9973568 73.54481114 5.11599183 65.78729356 12.6953125 58.35546875 C13.31817139 57.74316406 13.94103027 57.13085938 14.58276367 56.5 C15.77821556 55.33177111 16.98100708 54.17098305 18.19262695 53.01953125 C24.20456593 47.17111701 29.06030938 40.82834711 29.3125 32.1875 C29.22991593 26.49745779 27.50309962 23.72331366 23.66796875 19.55078125 C18.92541593 14.97631891 13.13896103 12.48856636 7.20703125 9.80859375 C3.81990545 7.89843633 2.0778423 6.26370763 0 3 C0 2.01 0 1.02 0 0 Z M81 92 C81 93.32 81 94.64 81 96 C82.65 95.67 84.3 95.34 86 95 C85.67 94.01 85.34 93.02 85 92 C83.68 92 82.36 92 81 92 Z " fill="#FABC86" transform="translate(802,0)"/>
</svg>
